name rise43.5482peak65.4966fall89.1036.mot
datacolumns 19
datarows 27
range 6.73663300000000 6.77997300000000
endheader
time	ground_force1_vx	ground_force1_vy	ground_force1_vz	ground_force1_px	ground_force1_py	ground_force1_pz	ground_force2_vx	ground_force2_vy	ground_force2_vz	ground_force2_px	ground_force2_py	ground_force2_pz	ground_torque1_x	ground_torque1_y	ground_torque1_z	ground_torque2_x	ground_torque2_y	ground_torque2_z	
6.73663300000000	15.17219200000000	707.17044199999998	44.41229300000000	0.17156200000000	0.00000000000000	0.10764100000000	0.00000000000000	0.00000000000000	0.00000000000000	0.00000000000000	0.00000000000000	0.00000000000000	0.00000000000000	12.27280200000000	0.00000000000000	0.00000000000000	0.00000000000000	0.00000000000000	
6.73830600000000	14.79319300000000	707.64095199999997	44.36695400000000	0.17070300000000	0.00000000000000	0.10752100000000	0.00000000000000	0.00000000000000	0.00000000000000	0.00000000000000	0.00000000000000	0.00000000000000	0.00000000000000	12.30342400000000	0.00000000000000	0.00000000000000	0.00000000000000	0.00000000000000	
6.73997000000000	14.40564900000000	708.11947799999996	44.32270700000000	0.16983700000000	0.00000000000000	0.10740100000000	0.00000000000000	0.00000000000000	0.00000000000000	0.00000000000000	0.00000000000000	0.00000000000000	0.00000000000000	12.33665500000000	0.00000000000000	0.00000000000000	0.00000000000000	0.00000000000000	
6.74163400000000	14.00925400000000	708.60538599999995	44.27942900000000	0.16896400000000	0.00000000000000	0.10727900000000	0.00000000000000	0.00000000000000	0.00000000000000	0.00000000000000	0.00000000000000	0.00000000000000	0.00000000000000	12.37251700000000	0.00000000000000	0.00000000000000	0.00000000000000	0.00000000000000	
6.74330300000000	13.60372800000000	709.09819800000002	44.23700400000000	0.16808500000000	0.00000000000000	0.10715700000000	0.00000000000000	0.00000000000000	0.00000000000000	0.00000000000000	0.00000000000000	0.00000000000000	0.00000000000000	12.41103100000000	0.00000000000000	0.00000000000000	0.00000000000000	0.00000000000000	
6.74496600000000	13.18880900000000	709.59759199999996	44.19533000000000	0.16719900000000	0.00000000000000	0.10703400000000	0.00000000000000	0.00000000000000	0.00000000000000	0.00000000000000	0.00000000000000	0.00000000000000	0.00000000000000	12.45221800000000	0.00000000000000	0.00000000000000	0.00000000000000	0.00000000000000	
6.74663400000000	12.76426700000000	710.10339699999997	44.15431500000000	0.16630600000000	0.00000000000000	0.10691100000000	0.00000000000000	0.00000000000000	0.00000000000000	0.00000000000000	0.00000000000000	0.00000000000000	0.00000000000000	12.49609700000000	0.00000000000000	0.00000000000000	0.00000000000000	0.00000000000000	
6.74830700000000	12.32989200000000	710.61559199999999	44.11388100000000	0.16540700000000	0.00000000000000	0.10678700000000	0.00000000000000	0.00000000000000	0.00000000000000	0.00000000000000	0.00000000000000	0.00000000000000	0.00000000000000	12.54268800000000	0.00000000000000	0.00000000000000	0.00000000000000	0.00000000000000	
6.74997400000000	11.88550500000000	711.13431000000003	44.07396100000000	0.16450300000000	0.00000000000000	0.10666200000000	0.00000000000000	0.00000000000000	0.00000000000000	0.00000000000000	0.00000000000000	0.00000000000000	0.00000000000000	12.59200700000000	0.00000000000000	0.00000000000000	0.00000000000000	0.00000000000000	
6.75164000000000	11.43095500000000	711.65982499999996	44.03450100000000	0.16359200000000	0.00000000000000	0.10653700000000	0.00000000000000	0.00000000000000	0.00000000000000	0.00000000000000	0.00000000000000	0.00000000000000	0.00000000000000	12.64407000000000	0.00000000000000	0.00000000000000	0.00000000000000	0.00000000000000	
6.75330200000000	10.96612000000000	712.19255699999997	43.99546100000000	0.16267500000000	0.00000000000000	0.10641100000000	0.00000000000000	0.00000000000000	0.00000000000000	0.00000000000000	0.00000000000000	0.00000000000000	0.00000000000000	12.69888800000000	0.00000000000000	0.00000000000000	0.00000000000000	0.00000000000000	
6.75497200000000	10.49090600000000	712.73306000000002	43.95681200000000	0.16175300000000	0.00000000000000	0.10628500000000	0.00000000000000	0.00000000000000	0.00000000000000	0.00000000000000	0.00000000000000	0.00000000000000	0.00000000000000	12.75647000000000	0.00000000000000	0.00000000000000	0.00000000000000	0.00000000000000	
6.75663600000000	10.00525400000000	713.28202099999999	43.91854200000000	0.16082500000000	0.00000000000000	0.10615800000000	0.00000000000000	0.00000000000000	0.00000000000000	0.00000000000000	0.00000000000000	0.00000000000000	0.00000000000000	12.81682000000000	0.00000000000000	0.00000000000000	0.00000000000000	0.00000000000000	
6.75829900000000	9.50913300000000	713.84025599999995	43.88065000000000	0.15989300000000	0.00000000000000	0.10603200000000	0.00000000000000	0.00000000000000	0.00000000000000	0.00000000000000	0.00000000000000	0.00000000000000	0.00000000000000	12.87994000000000	0.00000000000000	0.00000000000000	0.00000000000000	0.00000000000000	
6.75997100000000	9.00254800000000	714.40869599999996	43.84314800000000	0.15895500000000	0.00000000000000	0.10590500000000	0.00000000000000	0.00000000000000	0.00000000000000	0.00000000000000	0.00000000000000	0.00000000000000	0.00000000000000	12.94582400000000	0.00000000000000	0.00000000000000	0.00000000000000	0.00000000000000	
6.76163600000000	8.48553300000000	714.98838699999999	43.80606400000000	0.15801300000000	0.00000000000000	0.10577800000000	0.00000000000000	0.00000000000000	0.00000000000000	0.00000000000000	0.00000000000000	0.00000000000000	0.00000000000000	13.01446300000000	0.00000000000000	0.00000000000000	0.00000000000000	0.00000000000000	
6.76330000000000	7.95815800000000	715.58047799999997	43.76943900000000	0.15706600000000	0.00000000000000	0.10565100000000	0.00000000000000	0.00000000000000	0.00000000000000	0.00000000000000	0.00000000000000	0.00000000000000	0.00000000000000	13.08584100000000	0.00000000000000	0.00000000000000	0.00000000000000	0.00000000000000	
6.76497100000000	7.42052500000000	716.18621399999995	43.73332700000000	0.15611500000000	0.00000000000000	0.10552300000000	0.00000000000000	0.00000000000000	0.00000000000000	0.00000000000000	0.00000000000000	0.00000000000000	0.00000000000000	13.15993600000000	0.00000000000000	0.00000000000000	0.00000000000000	0.00000000000000	
6.76663200000000	6.87277200000000	716.80692699999997	43.69779700000000	0.15516000000000	0.00000000000000	0.10539600000000	0.00000000000000	0.00000000000000	0.00000000000000	0.00000000000000	0.00000000000000	0.00000000000000	0.00000000000000	13.23672100000000	0.00000000000000	0.00000000000000	0.00000000000000	0.00000000000000	
6.76830000000000	6.31506700000000	717.44402800000000	43.66293000000000	0.15420100000000	0.00000000000000	0.10527000000000	0.00000000000000	0.00000000000000	0.00000000000000	0.00000000000000	0.00000000000000	0.00000000000000	0.00000000000000	13.31616000000000	0.00000000000000	0.00000000000000	0.00000000000000	0.00000000000000	
6.76997000000000	5.74761500000000	718.09899399999995	43.62882400000000	0.15323900000000	0.00000000000000	0.10514300000000	0.00000000000000	0.00000000000000	0.00000000000000	0.00000000000000	0.00000000000000	0.00000000000000	0.00000000000000	13.39821100000000	0.00000000000000	0.00000000000000	0.00000000000000	0.00000000000000	
6.77164100000000	5.17065200000000	718.77336100000002	43.59558700000000	0.15227300000000	0.00000000000000	0.10501700000000	0.00000000000000	0.00000000000000	0.00000000000000	0.00000000000000	0.00000000000000	0.00000000000000	0.00000000000000	13.48282400000000	0.00000000000000	0.00000000000000	0.00000000000000	0.00000000000000	
6.77330600000000	4.58445000000000	719.46871199999998	43.56334300000000	0.15130400000000	0.00000000000000	0.10489100000000	0.00000000000000	0.00000000000000	0.00000000000000	0.00000000000000	0.00000000000000	0.00000000000000	0.00000000000000	13.56994300000000	0.00000000000000	0.00000000000000	0.00000000000000	0.00000000000000	
6.77497000000000	3.98931200000000	720.18666800000005	43.53222700000000	0.15033200000000	0.00000000000000	0.10476600000000	0.00000000000000	0.00000000000000	0.00000000000000	0.00000000000000	0.00000000000000	0.00000000000000	0.00000000000000	13.65950000000000	0.00000000000000	0.00000000000000	0.00000000000000	0.00000000000000	
6.77663600000000	3.38557200000000	720.92887299999995	43.50239000000000	0.14935800000000	0.00000000000000	0.10464100000000	0.00000000000000	0.00000000000000	0.00000000000000	0.00000000000000	0.00000000000000	0.00000000000000	0.00000000000000	13.75142500000000	0.00000000000000	0.00000000000000	0.00000000000000	0.00000000000000	
6.77830000000000	2.77359700000000	721.69698800000003	43.47399200000000	0.14838100000000	0.00000000000000	0.10451700000000	0.00000000000000	0.00000000000000	0.00000000000000	0.00000000000000	0.00000000000000	0.00000000000000	0.00000000000000	13.84563500000000	0.00000000000000	0.00000000000000	0.00000000000000	0.00000000000000	
6.77997300000000	2.15378400000000	722.49267599999996	43.44720700000000	0.14740200000000	0.00000000000000	0.10439400000000	0.00000000000000	0.00000000000000	0.00000000000000	0.00000000000000	0.00000000000000	0.00000000000000	0.00000000000000	13.94204000000000	0.00000000000000	0.00000000000000	0.00000000000000	0.00000000000000	
